<svg width="25" height="24" viewBox="0 0 25 24" fill="none" xmlns="http://www.w3.org/2000/svg">
<path d="M21.8638 0H1.26746C0.570339 0 0 0.571415 0 1.26985V3.55555C0 4.25398 0.570339 4.8254 1.26746 4.8254H21.8004C22.4975 4.8254 23.0678 4.25398 23.0678 3.55555V1.26985C23.1312 0.571415 22.5608 0 21.8638 0ZM21.8638 12.7619H1.26746C0.570339 12.7619 0 13.3333 0 14.0317V16.3174C0 17.0159 0.570339 17.5873 1.26746 17.5873H21.8004C22.4975 17.5873 23.0678 17.0159 23.0678 16.3174V14.0317C23.1312 13.3333 22.5608 12.7619 21.8638 12.7619V12.7619ZM12.8648 19.1746H1.26746C0.570339 19.1746 0 19.746 0 20.4445V22.7302C0 23.4286 0.570339 24 1.26746 24H12.8648C13.5619 24 14.1322 23.4286 14.1322 22.7302V20.4445C14.1322 19.746 13.5619 19.1746 12.8648 19.1746V19.1746ZM23.1312 6.4127H1.26746C0.570339 6.4127 0 6.98412 0 7.68251V9.96825C0 10.6666 0.570339 11.2381 1.26746 11.2381H23.1312C23.8283 11.2381 24.3987 10.6666 24.3987 9.96825V7.68251C24.3987 6.98412 23.8283 6.4127 23.1312 6.4127V6.4127Z" fill="#0BA4DB"/>
</svg>
