<svg width="105" height="24" viewBox="0 0 105 24" fill="none" xmlns="http://www.w3.org/2000/svg">
<path d="M21.8638 0H1.26746C0.570339 0 0 0.571415 0 1.26985V3.55555C0 4.25398 0.570339 4.8254 1.26746 4.8254H21.8004C22.4975 4.8254 23.0678 4.25398 23.0678 3.55555V1.26985C23.1312 0.571415 22.5608 0 21.8638 0ZM21.8638 12.7619H1.26746C0.570339 12.7619 0 13.3333 0 14.0317V16.3174C0 17.0159 0.570339 17.5873 1.26746 17.5873H21.8004C22.4975 17.5873 23.0678 17.0159 23.0678 16.3174V14.0317C23.1312 13.3333 22.5608 12.7619 21.8638 12.7619V12.7619ZM12.8648 19.1746H1.26746C0.570339 19.1746 0 19.746 0 20.4445V22.7302C0 23.4286 0.570339 24 1.26746 24H12.8648C13.5619 24 14.1322 23.4286 14.1322 22.7302V20.4445C14.1322 19.746 13.5619 19.1746 12.8648 19.1746V19.1746ZM23.1312 6.4127H1.26746C0.570339 6.4127 0 6.98412 0 7.68251V9.96825C0 10.6666 0.570339 11.2381 1.26746 11.2381H23.1312C23.8283 11.2381 24.3987 10.6666 24.3987 9.96825V7.68251C24.3987 6.98412 23.8283 6.4127 23.1312 6.4127V6.4127Z" fill="#0BA4DB"/>
<path d="M34.2752 20.54C34.1579 20.54 34.0619 20.5027 33.9872 20.428C33.9125 20.3533 33.8752 20.2573 33.8752 20.14V9.58C33.8752 9.46267 33.9125 9.36667 33.9872 9.292C34.0619 9.21733 34.1579 9.18 34.2752 9.18H35.7952C35.9125 9.18 36.0085 9.21733 36.0832 9.292C36.1579 9.36667 36.1952 9.46267 36.1952 9.58V10.188C36.4512 9.84667 36.7819 9.56933 37.1872 9.356C37.5925 9.132 38.0992 9.02 38.7072 9.02C39.2619 9.02 39.7419 9.11067 40.1472 9.292C40.5632 9.46267 40.9099 9.71333 41.1872 10.044C41.4752 10.364 41.6939 10.7533 41.8432 11.212C42.0032 11.6707 42.0939 12.188 42.1152 12.764C42.1259 12.9667 42.1312 13.1587 42.1312 13.34C42.1312 13.5213 42.1259 13.7187 42.1152 13.932C42.1045 14.476 42.0192 14.9773 41.8592 15.436C41.7099 15.8947 41.4912 16.2893 41.2032 16.62C40.9152 16.9507 40.5632 17.2067 40.1472 17.388C39.7419 17.5693 39.2619 17.66 38.7072 17.66C38.1632 17.66 37.6885 17.564 37.2832 17.372C36.8885 17.1693 36.5632 16.8973 36.3072 16.556V20.14C36.3072 20.2573 36.2699 20.3533 36.1952 20.428C36.1205 20.5027 36.0299 20.54 35.9232 20.54H34.2752ZM37.9872 15.74C38.3925 15.74 38.7125 15.6547 38.9472 15.484C39.1819 15.3027 39.3472 15.068 39.4432 14.78C39.5499 14.492 39.6139 14.1773 39.6352 13.836C39.6565 13.5053 39.6565 13.1747 39.6352 12.844C39.6139 12.5027 39.5499 12.188 39.4432 11.9C39.3472 11.612 39.1819 11.3827 38.9472 11.212C38.7125 11.0307 38.3925 10.94 37.9872 10.94C37.5925 10.94 37.2725 11.0307 37.0272 11.212C36.7819 11.3933 36.6059 11.6227 36.4992 11.9C36.3925 12.1773 36.3285 12.476 36.3072 12.796C36.2965 12.988 36.2912 13.1853 36.2912 13.388C36.2912 13.5907 36.2965 13.7933 36.3072 13.996C36.3179 14.2947 36.3819 14.5773 36.4992 14.844C36.6272 15.1 36.8085 15.3133 37.0432 15.484C37.2885 15.6547 37.6032 15.74 37.9872 15.74ZM46.2763 17.66C45.711 17.66 45.2043 17.5533 44.7563 17.34C44.3083 17.116 43.951 16.8173 43.6843 16.444C43.4176 16.0707 43.2843 15.6547 43.2843 15.196C43.2843 14.4387 43.5883 13.8413 44.1963 13.404C44.815 12.9667 45.6256 12.668 46.6283 12.508L48.7243 12.204V11.916C48.7243 11.5 48.6283 11.18 48.4363 10.956C48.2443 10.732 47.9083 10.62 47.4283 10.62C47.0763 10.62 46.7936 10.6893 46.5803 10.828C46.367 10.9667 46.2016 11.148 46.0843 11.372C45.999 11.5107 45.8763 11.58 45.7163 11.58H44.1963C44.079 11.58 43.9883 11.548 43.9243 11.484C43.8603 11.4093 43.8336 11.324 43.8443 11.228C43.8443 11.0467 43.9136 10.8333 44.0523 10.588C44.191 10.3427 44.4043 10.1027 44.6923 9.868C44.9803 9.62267 45.3483 9.42 45.7963 9.26C46.2443 9.1 46.7936 9.02 47.4443 9.02C48.1163 9.02 48.6923 9.1 49.1723 9.26C49.6523 9.42 50.0363 9.644 50.3243 9.932C50.6123 10.22 50.8256 10.556 50.9643 10.94C51.103 11.3133 51.1723 11.7187 51.1723 12.156V17.1C51.1723 17.2173 51.135 17.3133 51.0603 17.388C50.9856 17.4627 50.8896 17.5 50.7723 17.5H49.2043C49.0976 17.5 49.007 17.4627 48.9323 17.388C48.8576 17.3133 48.8203 17.2173 48.8203 17.1V16.508C48.6816 16.7107 48.495 16.9027 48.2603 17.084C48.0256 17.2547 47.743 17.3933 47.4123 17.5C47.0923 17.6067 46.7136 17.66 46.2763 17.66ZM46.9163 15.996C47.2683 15.996 47.583 15.9213 47.8603 15.772C48.1376 15.6227 48.3563 15.3933 48.5163 15.084C48.6763 14.7747 48.7563 14.3853 48.7563 13.916V13.644L47.2683 13.884C46.6923 13.98 46.271 14.124 46.0043 14.316C45.7376 14.508 45.6043 14.7427 45.6043 15.02C45.6043 15.2227 45.663 15.3987 45.7803 15.548C45.9083 15.6973 46.0736 15.8093 46.2763 15.884C46.479 15.9587 46.6923 15.996 46.9163 15.996ZM54.3796 20.54C54.2942 20.54 54.2142 20.508 54.1396 20.444C54.0756 20.38 54.0436 20.3 54.0436 20.204C54.0436 20.1827 54.0489 20.1507 54.0596 20.108C54.0702 20.076 54.0862 20.0333 54.1076 19.98L55.3556 16.988L52.2836 9.74C52.2516 9.65467 52.2356 9.58533 52.2356 9.532C52.2462 9.436 52.2836 9.356 52.3476 9.292C52.4116 9.21733 52.4916 9.18 52.5876 9.18H54.1396C54.2782 9.18 54.3796 9.21733 54.4436 9.292C54.5076 9.356 54.5556 9.42533 54.5876 9.5L56.5716 14.46L58.6036 9.5C58.6462 9.41467 58.6996 9.34 58.7636 9.276C58.8276 9.212 58.9289 9.18 59.0676 9.18H60.5876C60.6836 9.18 60.7636 9.21733 60.8276 9.292C60.9022 9.356 60.9396 9.43067 60.9396 9.516C60.9396 9.56933 60.9182 9.644 60.8756 9.74L56.3476 20.22C56.3156 20.3053 56.2622 20.38 56.1876 20.444C56.1236 20.508 56.0222 20.54 55.8836 20.54H54.3796ZM65.2333 17.66C64.572 17.66 64.0013 17.5853 63.5213 17.436C63.052 17.276 62.668 17.084 62.3693 16.86C62.0813 16.636 61.8626 16.412 61.7133 16.188C61.5746 15.9533 61.5 15.756 61.4893 15.596C61.4786 15.4787 61.516 15.3827 61.6013 15.308C61.6866 15.2333 61.772 15.196 61.8573 15.196H63.4093C63.4413 15.196 63.4733 15.2013 63.5053 15.212C63.5373 15.2227 63.5693 15.2493 63.6013 15.292C63.74 15.388 63.884 15.5 64.0333 15.628C64.1826 15.7453 64.3533 15.8467 64.5453 15.932C64.748 16.0173 64.9986 16.06 65.2973 16.06C65.6493 16.06 65.948 15.9907 66.1933 15.852C66.4386 15.7027 66.5613 15.4947 66.5613 15.228C66.5613 15.036 66.5026 14.876 66.3853 14.748C66.2786 14.62 66.0706 14.5027 65.7613 14.396C65.452 14.2893 64.9933 14.172 64.3853 14.044C63.8093 13.916 63.3186 13.7453 62.9133 13.532C62.508 13.3187 62.204 13.052 62.0013 12.732C61.7986 12.4013 61.6973 12.0067 61.6973 11.548C61.6973 11.132 61.8253 10.732 62.0813 10.348C62.348 9.964 62.7373 9.64933 63.2493 9.404C63.7613 9.148 64.4013 9.02 65.1693 9.02C65.756 9.02 66.268 9.09467 66.7053 9.244C67.1533 9.38267 67.5266 9.564 67.8253 9.788C68.124 10.0013 68.348 10.2253 68.4973 10.46C68.6573 10.684 68.7426 10.8813 68.7533 11.052C68.764 11.1587 68.732 11.2493 68.6573 11.324C68.5826 11.3987 68.4973 11.436 68.4013 11.436H66.9773C66.924 11.436 66.876 11.4307 66.8333 11.42C66.7906 11.3987 66.7533 11.372 66.7213 11.34C66.5933 11.2547 66.46 11.1587 66.3213 11.052C66.1933 10.9347 66.0386 10.8333 65.8573 10.748C65.676 10.6627 65.4413 10.62 65.1533 10.62C64.8013 10.62 64.5293 10.7 64.3373 10.86C64.156 11.0093 64.0653 11.2013 64.0653 11.436C64.0653 11.5853 64.1133 11.724 64.2093 11.852C64.3053 11.98 64.5026 12.0973 64.8013 12.204C65.1 12.3107 65.5533 12.4227 66.1613 12.54C66.8866 12.668 67.4626 12.86 67.8893 13.116C68.316 13.372 68.62 13.6707 68.8013 14.012C68.9933 14.3427 69.0893 14.7 69.0893 15.084C69.0893 15.5853 68.94 16.0333 68.6413 16.428C68.3426 16.812 67.9053 17.116 67.3293 17.34C66.764 17.5533 66.0653 17.66 65.2333 17.66ZM74.5939 17.5C73.9326 17.5 73.3673 17.3933 72.8979 17.18C72.4286 16.956 72.0713 16.6147 71.8259 16.156C71.5913 15.6973 71.4739 15.1213 71.4739 14.428V11.068H70.2259C70.1086 11.068 70.0126 11.0307 69.9379 10.956C69.8633 10.8813 69.8259 10.7853 69.8259 10.668V9.58C69.8259 9.46267 69.8633 9.36667 69.9379 9.292C70.0126 9.21733 70.1086 9.18 70.2259 9.18H71.4739V6.54C71.4739 6.42267 71.5113 6.32667 71.5859 6.252C71.6713 6.17733 71.7673 6.14 71.8739 6.14H73.4419C73.5593 6.14 73.6553 6.17733 73.7299 6.252C73.8046 6.32667 73.8419 6.42267 73.8419 6.54V9.18H75.8419C75.9486 9.18 76.0393 9.21733 76.1139 9.292C76.1886 9.36667 76.2259 9.46267 76.2259 9.58V10.668C76.2259 10.7853 76.1886 10.8813 76.1139 10.956C76.0393 11.0307 75.9486 11.068 75.8419 11.068H73.8419V14.236C73.8419 14.6413 73.9113 14.9613 74.0499 15.196C74.1993 15.42 74.4553 15.532 74.8179 15.532H75.9859C76.0926 15.532 76.1833 15.5693 76.2579 15.644C76.3326 15.7187 76.3699 15.8093 76.3699 15.916V17.1C76.3699 17.2173 76.3326 17.3133 76.2579 17.388C76.1833 17.4627 76.0926 17.5 75.9859 17.5H74.5939ZM80.2138 17.66C79.6485 17.66 79.1418 17.5533 78.6938 17.34C78.2458 17.116 77.8885 16.8173 77.6218 16.444C77.3551 16.0707 77.2218 15.6547 77.2218 15.196C77.2218 14.4387 77.5258 13.8413 78.1338 13.404C78.7525 12.9667 79.5631 12.668 80.5658 12.508L82.6618 12.204V11.916C82.6618 11.5 82.5658 11.18 82.3738 10.956C82.1818 10.732 81.8458 10.62 81.3658 10.62C81.0138 10.62 80.7311 10.6893 80.5178 10.828C80.3045 10.9667 80.1391 11.148 80.0218 11.372C79.9365 11.5107 79.8138 11.58 79.6538 11.58H78.1338C78.0165 11.58 77.9258 11.548 77.8618 11.484C77.7978 11.4093 77.7711 11.324 77.7818 11.228C77.7818 11.0467 77.8511 10.8333 77.9898 10.588C78.1285 10.3427 78.3418 10.1027 78.6298 9.868C78.9178 9.62267 79.2858 9.42 79.7338 9.26C80.1818 9.1 80.7311 9.02 81.3818 9.02C82.0538 9.02 82.6298 9.1 83.1098 9.26C83.5898 9.42 83.9738 9.644 84.2618 9.932C84.5498 10.22 84.7631 10.556 84.9018 10.94C85.0405 11.3133 85.1098 11.7187 85.1098 12.156V17.1C85.1098 17.2173 85.0725 17.3133 84.9978 17.388C84.9231 17.4627 84.8271 17.5 84.7098 17.5H83.1418C83.0351 17.5 82.9445 17.4627 82.8698 17.388C82.7951 17.3133 82.7578 17.2173 82.7578 17.1V16.508C82.6191 16.7107 82.4325 16.9027 82.1978 17.084C81.9631 17.2547 81.6805 17.3933 81.3498 17.5C81.0298 17.6067 80.6511 17.66 80.2138 17.66ZM80.8538 15.996C81.2058 15.996 81.5205 15.9213 81.7978 15.772C82.0751 15.6227 82.2938 15.3933 82.4538 15.084C82.6138 14.7747 82.6938 14.3853 82.6938 13.916V13.644L81.2058 13.884C80.6298 13.98 80.2085 14.124 79.9418 14.316C79.6751 14.508 79.5418 14.7427 79.5418 15.02C79.5418 15.2227 79.6005 15.3987 79.7178 15.548C79.8458 15.6973 80.0111 15.8093 80.2138 15.884C80.4165 15.9587 80.6298 15.996 80.8538 15.996ZM90.7431 17.66C89.9644 17.66 89.2764 17.516 88.6791 17.228C88.0924 16.94 87.6284 16.524 87.2871 15.98C86.9457 15.4253 86.7591 14.764 86.7271 13.996C86.7164 13.8253 86.7111 13.612 86.7111 13.356C86.7111 13.0893 86.7164 12.8707 86.7271 12.7C86.7591 11.9213 86.9404 11.26 87.2711 10.716C87.6124 10.1613 88.0817 9.74 88.6791 9.452C89.2764 9.164 89.9644 9.02 90.7431 9.02C91.4577 9.02 92.0657 9.12133 92.5671 9.324C93.0684 9.516 93.4791 9.76133 93.7991 10.06C94.1191 10.3587 94.3537 10.6733 94.5031 11.004C94.6631 11.324 94.7484 11.6067 94.7591 11.852C94.7697 11.9587 94.7324 12.0547 94.6471 12.14C94.5724 12.2147 94.4817 12.252 94.3751 12.252H92.6631C92.5564 12.252 92.4711 12.2253 92.4071 12.172C92.3537 12.108 92.3004 12.0227 92.2471 11.916C92.0977 11.5427 91.9057 11.276 91.6711 11.116C91.4364 10.956 91.1431 10.876 90.7911 10.876C90.3111 10.876 89.9324 11.0307 89.6551 11.34C89.3777 11.6493 89.2284 12.1293 89.2071 12.78C89.1964 13.196 89.1964 13.5747 89.2071 13.916C89.2391 14.5773 89.3884 15.0573 89.6551 15.356C89.9324 15.6547 90.3111 15.804 90.7911 15.804C91.1644 15.804 91.4631 15.724 91.6871 15.564C91.9111 15.404 92.0977 15.1373 92.2471 14.764C92.2897 14.6573 92.3431 14.5773 92.4071 14.524C92.4711 14.46 92.5564 14.428 92.6631 14.428H94.3751C94.4817 14.428 94.5724 14.4707 94.6471 14.556C94.7324 14.6307 94.7697 14.7213 94.7591 14.828C94.7484 15.0093 94.6951 15.2227 94.5991 15.468C94.5137 15.7133 94.3697 15.964 94.1671 16.22C93.9751 16.476 93.7244 16.716 93.4151 16.94C93.1057 17.1533 92.7271 17.3293 92.2791 17.468C91.8417 17.596 91.3297 17.66 90.7431 17.66ZM96.7283 17.5C96.611 17.5 96.515 17.4627 96.4403 17.388C96.3656 17.3133 96.3283 17.2173 96.3283 17.1V6.54C96.3283 6.42267 96.3656 6.32667 96.4403 6.252C96.515 6.17733 96.611 6.14 96.7283 6.14H98.2963C98.403 6.14 98.4936 6.17733 98.5683 6.252C98.643 6.32667 98.6803 6.42267 98.6803 6.54V11.948L101.144 9.452C101.23 9.37733 101.304 9.31333 101.368 9.26C101.443 9.20667 101.555 9.18 101.704 9.18H103.512C103.619 9.18 103.704 9.21733 103.768 9.292C103.832 9.356 103.864 9.436 103.864 9.532C103.864 9.57467 103.854 9.62267 103.832 9.676C103.811 9.72933 103.774 9.772 103.72 9.804L100.632 12.908L104.12 16.892C104.216 16.9773 104.264 17.0627 104.264 17.148C104.264 17.244 104.227 17.3293 104.152 17.404C104.088 17.468 104.008 17.5 103.912 17.5H102.056C101.896 17.5 101.779 17.4733 101.704 17.42C101.64 17.3667 101.566 17.3027 101.48 17.228L98.6803 14.092V17.1C98.6803 17.2173 98.643 17.3133 98.5683 17.388C98.4936 17.4627 98.403 17.5 98.2963 17.5H96.7283Z" fill="black"/>
</svg>
